#!OML:ASF H:\ManfredETheater\Project 1\Capture day 1\Session 1\subject.ASF
:FULLY-SPECIFIED
:DEGREES
449
root -2.94505 14.7606 20.7322 30.6305 6.86765 1.29134
lowerback 22.575 -3.1635 -0.58468
upperback -0.0915367 -4.18468 0.848002
thorax -12.6826 -1.8387 2.65966
lowerneck -17.4289 -3.17001 -3.83262
upperneck -13.8599 -3.14314 8.24027
head -1.35757 -1.43898 3.25973
rclavicle 3.89618e-014 -1.51076e-014
rhumerus -57.3351 -6.34271 -73.902
rradius 82.5609
rwrist -7.65191
rhand -31.8937 -2.32798
rfingers 7.12502
rthumb -5.14614 -32.2455
lclavicle 3.89618e-014 -1.51076e-014
lhumerus -34.3252 -11.7902 83.4014
lradius 95.4875
lwrist -6.07453
lhand -26.9221 -18.9044
lfingers 7.12502
lthumb -0.344817 11.0751
rfemur -80.3256 -9.89469 29.9499
rtibia 77.0431
rfoot -24.2882 -2.57339
rtoes -37.3803
lfemur -3.55152 -5.40806 -24.715
ltibia 41.1825
lfoot 2.89911 -3.451
ltoes -29.8505
450
root -2.88845 14.7957 21.0714 31.0604 6.16039 1.1909
lowerback 22.3603 -3.09178 -0.512174
upperback -0.216584 -4.07747 0.830802
thorax -12.7171 -1.79525 2.55668
lowerneck -17.5903 -2.99793 -3.6759
upperneck -13.8346 -2.95967 7.87414
head -1.34544 -1.35127 3.10948
rclavicle 7.07673e-014 -3.97569e-016
rhumerus -56.899 -6.78319 -74.2153
rradius 81.7261
rwrist -8.21938
rhand -31.8721 -2.60086
rfingers 7.12502
rthumb -5.12522 -32.5189
lclavicle 7.07673e-014 -3.97569e-016
lhumerus -34.9405 -12.1599 84.2577
lradius 94.1922
lwrist -6.29762
lhand -26.6643 -18.9801
lfingers 7.12502
lthumb -0.0958846 10.9996
rfemur -79.4087 -9.60522 29.6557
rtibia 77.2115
rfoot -24.875 -2.6923
rtoes -36.762
lfemur -4.26623 -5.73285 -25.0246
ltibia 41.8147
lfoot 7.50765 -4.27208
ltoes -25.0946
451
root -2.83244 14.8284 21.4091 31.3799 5.54117 1.04654
lowerback 22.2004 -3.028 -0.377384
upperback -0.303302 -3.96105 0.83291
thorax -12.7408 -1.75088 2.43907
lowerneck -17.7147 -2.83214 -3.53016
upperneck -13.802 -2.78477 7.49769
head -1.33512 -1.26807 2.95837
rclavicle -3.1408e-014 1.90833e-014
rhumerus -56.2566 -7.17127 -74.6112
rradius 80.8596
rwrist -8.75945
rhand -31.855 -2.85686
rfingers 7.12502
rthumb -5.10877 -32.7753
lclavicle -3.1408e-014 1.90833e-014
lhumerus -35.4762 -12.3908 85.1739
lradius 92.6768
lwrist -6.61081
lhand -26.4831 -19.0842
lfingers 7.12502
lthumb 0.0791306 10.8955
rfemur -78.3489 -9.35919 29.3924
rtibia 77.3514
rfoot -25.5198 -2.79004
rtoes -36.2569
lfemur -5.19156 -5.9456 -25.216
ltibia 43.0279
lfoot 11.3101 -4.99213
ltoes -19.6995
452
root -2.77594 14.8882 21.7581 31.6036 5.00392 0.84322
lowerback 22.0743 -2.96264 -0.182199
upperback -0.357511 -3.82295 0.861428
thorax -12.7481 -1.69969 2.31067
lowerneck -17.8053 -2.67177 -3.39824
upperneck -13.7544 -2.61673 7.10946
head -1.32357 -1.18811 2.80634
rclavicle 7.11649e-014 -1.15295e-014
rhumerus -55.4285 -7.50022 -75.0763
rradius 79.9664
rwrist -9.20328
rhand -31.8169 -3.0714
rfingers 7.12502
rthumb -5.0719 -32.9907
lclavicle 7.11649e-014 -1.15295e-014
lhumerus -35.9232 -12.4737 86.1351
lradius 90.949
lwrist -6.99537
lhand -26.3987 -19.1967
lfingers 7.12502
lthumb 0.160715 10.783
rfemur -76.93 -9.16482 29.1903
rtibia 77.2868
rfoot -26.2912 -3.05453
rtoes -36.0618
lfemur -6.30521 -5.99324 -25.2618
ltibia 44.7498
lfoot 14.117 -5.65579
ltoes -14.2654
453
root -2.72172 14.9173 22.0944 31.7331 4.57126 0.552877
lowerback 21.9775 -2.90096 0.107822
upperback -0.384513 -3.66017 0.926671
thorax -12.7439 -1.64196 2.16243
lowerneck -17.8682 -2.51402 -3.2782
upperneck -13.6819 -2.45207 6.70926
head -1.30675 -1.10941 2.65295
rclavicle 3.81667e-014 -1.59028e-015
rhumerus -54.446 -7.75633 -75.6054
rradius 79.0662
rwrist -9.49405
rhand -31.7418 -3.25307
rfingers 7.12502
rthumb -4.99944 -33.1741
lclavicle 3.81667e-014 -1.59028e-015
lhumerus -36.2834 -12.4097 87.1171
lradius 89.0144
lwrist -7.41026
lhand -26.4177 -19.3124
lfingers 7.12502
lthumb 0.142283 10.6673
rfemur -75.5477 -8.96679 29.1169
rtibia 77.2549
rfoot -27.0207 -3.54626
rtoes -36.1613
lfemur -7.65662 -5.84658 -25.1393
ltibia 47.1117
lfoot 15.7479 -6.26653
ltoes -9.28795
454
root -2.66822 14.9458 22.4319 31.745 4.23034 0.149459
lowerback 21.931 -2.8354 0.503059
upperback -0.378703 -3.45967 1.03125
thorax -12.7339 -1.57198 1.98803
lowerneck -17.9355 -2.35595 -3.17601
upperneck -13.5604 -2.28512 6.30586
head -1.27172 -1.02801 2.50209
rclavicle -8.34896e-015 -1.39149e-014
rhumerus -53.3292 -7.92855 -76.1952
rradius 78.1751
rwrist -9.60566
rhand -31.5965 -3.39907
rfingers 7.12502
rthumb -4.85915 -33.3233
lclavicle -8.34896e-015 -1.39149e-014
lhumerus -36.5512 -12.2043 88.0927
lradius 86.8871
lwrist -7.78616
lhand -26.5229 -19.3962
lfingers 7.12502
lthumb 0.0407267 10.5836
rfemur -73.9435 -8.76604 29.1675
rtibia 77.1032
rfoot -27.7747 -4.18752
rtoes -36.4267
lfemur -9.16236 -5.50139 -24.8255
ltibia 49.9632
lfoot 16.248 -6.79174
ltoes -5.35979
455
root -2.61547 14.973 22.7705 31.6754 3.94512 -0.289949
lowerback 21.9126 -2.75976 0.929616
upperback -0.358174 -3.23572 1.15127
thorax -12.7221 -1.49244 1.80648
lowerneck -17.9974 -2.20006 -3.08646
upperneck -13.3923 -2.1199 5.89645
head -1.22087 -0.946542 2.35187
rclavicle -3.57812e-014 8.34896e-015
rhumerus -52.1183 -7.99865 -76.8416
rradius 77.3238
rwrist -9.55089
rhand -31.396 -3.51342
rfingers 7.12502
rthumb -4.66552 -33.4421
lclavicle -3.57812e-014 8.34896e-015
lhumerus -36.7404 -11.8736 89.036
lradius 84.5901
lwrist -8.03022
lhand -26.7247 -19.4441
lfingers 7.12502
lthumb -0.154242 10.5356
rfemur -72.1805 -8.57125 29.2414
rtibia 76.8828
rfoot -28.5437 -4.8758
rtoes -36.7065
lfemur -10.859 -4.99898 -24.4142
ltibia 53.2891
lfoot 15.6102 -7.21112
ltoes -2.99197
456
root -2.56379 14.9993 23.11 31.5345 3.73325 -0.825076
lowerback 21.9174 -2.67528 1.44602
upperback -0.332696 -2.97291 1.30184
thorax -12.719 -1.39931 1.59645
lowerneck -18.0457 -2.04863 -3.00937
upperneck -13.1813 -1.95897 5.48204
head -1.15677 -0.866601 2.20274
rclavicle 1.70955e-014 -5.56597e-015
rhumerus -50.8504 -7.94613 -77.5413
rradius 76.5495
rwrist -9.38966
rhand -31.1505 -3.62772
rfingers 7.12502
rthumb -4.4285 -33.5614
lclavicle 1.70955e-014 -5.56597e-015
lhumerus -36.8753 -11.4456 89.9293
lradius 82.1643
lwrist -8.03122
lhand -26.9979 -19.4356
lfingers 7.12502
lthumb -0.418071 10.5437
rfemur -70.2535 -8.34458 29.3898
rtibia 76.5475
rfoot -29.2912 -5.59251
rtoes -37.0238
lfemur -12.7069 -4.35292 -23.831
ltibia 56.9064
lfoot 14.0343 -7.50917
ltoes -2.37659
457
root -2.51335 15.0239 23.4507 31.3202 3.55983 -1.40997
lowerback 21.9568 -2.57435 2.00007
upperback -0.304458 -2.67635 1.46384
thorax -12.7305 -1.29235 1.36821
lowerneck -18.0816 -1.90297 -2.94033
upperneck -12.9341 -1.80415 5.06413
head -1.08158 -0.789497 2.0545
rclavicle -1.31198e-014 1.23246e-014
rhumerus -49.5589 -7.75496 -78.2951
rradius 75.9002
rwrist -9.19162
rhand -30.8863 -3.76176
rfingers 7.12502
rthumb -4.17334 -33.7006
lclavicle -1.31198e-014 1.23246e-014
lhumerus -36.9838 -10.9506 90.7545
lradius 79.6706
lwrist -7.69199
lhand -27.3337 -19.3701
lfingers 7.12502
lthumb -0.742399 10.6084
rfemur -68.1766 -8.08039 29.5384
rtibia 76.1169
rfoot -30.0189 -6.31366
rtoes -37.4173
lfemur -14.6846 -3.58394 -23.1388
ltibia 60.7222
lfoot 11.7525 -7.6538
ltoes -3.2695
458
root -2.4641 15.0469 23.7919 31.0565 3.42056 -2.01835
lowerback 22.0169 -2.46005 2.57704
upperback -0.28324 -2.35474 1.62818
thorax -12.7588 -1.17526 1.12216
lowerneck -18.0933 -1.76352 -2.87187
upperneck -12.6661 -1.65693 4.64071
head -1.00252 -0.716717 1.90536
rclavicle 4.9895e-014 -3.97569e-015
rhumerus -48.2824 -7.4091 -79.1014
rradius 75.4273
rwrist -9.03615
rhand -30.6426 -3.89326
rfingers 7.12502
rthumb -3.93805 -33.8366
lclavicle 4.9895e-014 -3.97569e-015
lhumerus -37.1097 -10.4247 91.5015
lradius 77.1913
lwrist -6.93746
lhand -27.7235 -19.2638
lfingers 7.12502
lthumb -1.11887 10.713
rfemur -65.9892 -7.78703 29.665
rtibia 75.5992
rfoot -30.739 -7.00491
rtoes -37.918
lfemur -16.8117 -2.73443 -22.3671
ltibia 64.6577
lfoot 9.01112 -7.63988
ltoes -5.40435
459
root -2.41671 15.0673 24.1337 30.7479 3.29187 -2.61456
lowerback 22.1006 -2.32687 3.12841
upperback -0.27033 -2.01415 1.78319
thorax -12.8046 -1.04842 0.874648
lowerneck -18.0856 -1.63064 -2.79939
upperneck -12.3813 -1.51807 4.21622
head -0.920186 -0.648845 1.756
rclavicle 2.80286e-014 -9.74045e-015
rhumerus -47.057 -6.90737 -79.9556
rradius 75.186
rwrist -8.95259
rhand -30.4223 -3.97094
rfingers 7.12502
rthumb -3.72525 -33.9181
lclavicle 2.80286e-014 -9.74045e-015
lhumerus -37.3026 -9.90092 92.1631
lradius 74.8257
lwrist -5.77653
lhand -28.1577 -19.1505
lfingers 7.12502
lthumb -1.53819 10.8237
rfemur -63.7118 -7.46179 29.7339
rtibia 75.0088
rfoot -31.4575 -7.65479
rtoes -38.5499
lfemur -19.0818 -1.80828 -21.5631
ltibia 68.6371
lfoot 6.06537 -7.49792
ltoes -8.2858
